# MagicaVoxel @ Ephtracy

# group
g bed

# material
mtllib bed.mtl
usemtl palette

# normals
vn -1 0 0
vn 1 0 0
vn 0 0 1
vn 0 0 -1
vn 0 -1 0
vn 0 1 0

# texcoords
vt 0.783203 0.5
vt 0.814453 0.5
vt 0.818359 0.5
vt 0.880859 0.5
vt 0.912109 0.5

# verts
v -7 1 4
v -7 1 -4
v -7 3 4
v -7 3 -4
v -6 0 4
v -6 0 3
v -6 0 -3
v -6 0 -4
v -6 1 4
v -6 1 3
v -6 1 -3
v -6 1 -4
v 4 0 4
v 4 0 3
v 4 0 -3
v 4 0 -4
v 4 1 4
v 4 1 3
v 4 1 -3
v 4 1 -4
v 4 2 3
v 4 2 -3
v 4 3 3
v 4 3 -3
v 6 0 5
v 6 0 -5
v 6 1 4
v 6 1 -4
v 6 2 4
v 6 2 3
v 6 2 -3
v 6 2 -4
v 6 3 3
v 6 3 -3
v 6 4 4
v 6 4 3
v 6 4 -3
v 6 4 -4
v 6 5 1
v 6 5 -1
v 6 6 5
v 6 6 4
v 6 6 3
v 6 6 2
v 6 6 1
v 6 6 -1
v 6 6 -2
v 6 6 -3
v 6 6 -4
v 6 6 -5
v 6 7 2
v 6 7 -2
v -5 0 4
v -5 0 3
v -5 0 -3
v -5 0 -4
v -5 1 4
v -5 1 3
v -5 1 -3
v -5 1 -4
v 3 2 4
v 3 2 -4
v 3 3 4
v 3 3 -4
v 5 0 4
v 5 0 3
v 5 0 -3
v 5 0 -4
v 5 1 4
v 5 1 3
v 5 1 -3
v 5 1 -4
v 7 0 5
v 7 0 -5
v 7 4 4
v 7 4 3
v 7 4 -3
v 7 4 -4
v 7 5 1
v 7 5 -1
v 7 6 5
v 7 6 4
v 7 6 3
v 7 6 2
v 7 6 1
v 7 6 -1
v 7 6 -2
v 7 6 -3
v 7 6 -4
v 7 6 -5
v 7 7 2
v 7 7 -2
v 6 0 5
v 6 6 5
v 7 0 5
v 7 6 5
v -7 1 4
v -7 3 4
v -6 0 4
v -6 1 4
v -5 0 4
v -5 1 4
v 0 1 4
v 0 3 4
v 3 1 4
v 3 2 4
v 3 3 4
v 4 0 4
v 4 1 4
v 5 0 4
v 5 1 4
v 6 1 4
v 6 2 4
v 4 2 3
v 4 3 3
v 6 2 3
v 6 3 3
v 6 4 3
v 6 6 3
v 7 4 3
v 7 6 3
v 6 6 2
v 6 7 2
v 7 6 2
v 7 7 2
v 6 5 -1
v 6 6 -1
v 7 5 -1
v 7 6 -1
v -6 0 -3
v -6 1 -3
v -5 0 -3
v -5 1 -3
v 4 0 -3
v 4 1 -3
v 5 0 -3
v 5 1 -3
v 6 4 -4
v 6 6 -4
v 7 4 -4
v 7 6 -4
v 6 4 4
v 6 6 4
v 7 4 4
v 7 6 4
v -6 0 3
v -6 1 3
v -5 0 3
v -5 1 3
v 4 0 3
v 4 1 3
v 5 0 3
v 5 1 3
v 6 5 1
v 6 6 1
v 7 5 1
v 7 6 1
v 6 6 -2
v 6 7 -2
v 7 6 -2
v 7 7 -2
v 4 2 -3
v 4 3 -3
v 6 2 -3
v 6 3 -3
v 6 4 -3
v 6 6 -3
v 7 4 -3
v 7 6 -3
v -7 1 -4
v -7 3 -4
v -6 0 -4
v -6 1 -4
v -5 0 -4
v -5 1 -4
v 0 1 -4
v 0 3 -4
v 3 1 -4
v 3 2 -4
v 3 3 -4
v 4 0 -4
v 4 1 -4
v 5 0 -4
v 5 1 -4
v 6 1 -4
v 6 2 -4
v 6 0 -5
v 6 6 -5
v 7 0 -5
v 7 6 -5
v 6 0 5
v 7 0 5
v -6 0 4
v -5 0 4
v 4 0 4
v 5 0 4
v -6 0 3
v -5 0 3
v 4 0 3
v 5 0 3
v -6 0 -3
v -5 0 -3
v 4 0 -3
v 5 0 -3
v -6 0 -4
v -5 0 -4
v 4 0 -4
v 5 0 -4
v 6 0 -5
v 7 0 -5
v -7 1 4
v -6 1 4
v -5 1 4
v 0 1 4
v 3 1 4
v 4 1 4
v 5 1 4
v 6 1 4
v -6 1 3
v -5 1 3
v 0 1 3
v 3 1 3
v 4 1 3
v 5 1 3
v -6 1 -3
v -5 1 -3
v 0 1 -3
v 3 1 -3
v 4 1 -3
v 5 1 -3
v -7 1 -4
v -6 1 -4
v -5 1 -4
v 0 1 -4
v 3 1 -4
v 4 1 -4
v 5 1 -4
v 6 1 -4
v 6 6 1
v 7 6 1
v 6 6 -1
v 7 6 -1
v 3 2 4
v 6 2 4
v 4 2 3
v 6 2 3
v 4 2 -3
v 6 2 -3
v 3 2 -4
v 6 2 -4
v -7 3 4
v 0 3 4
v 3 3 4
v 4 3 3
v 6 3 3
v 4 3 -3
v 6 3 -3
v -7 3 -4
v 0 3 -4
v 3 3 -4
v 6 4 4
v 7 4 4
v 6 4 3
v 7 4 3
v 6 4 -3
v 7 4 -3
v 6 4 -4
v 7 4 -4
v 6 5 1
v 7 5 1
v 6 5 -1
v 7 5 -1
v 6 6 5
v 7 6 5
v 6 6 4
v 7 6 4
v 6 6 3
v 7 6 3
v 6 6 2
v 7 6 2
v 6 6 -2
v 7 6 -2
v 6 6 -3
v 7 6 -3
v 6 6 -4
v 7 6 -4
v 6 6 -5
v 7 6 -5
v 6 7 2
v 7 7 2
v 6 7 -2
v 7 7 -2

# faces
f 3/1/1 2/1/1 1/1/1
f 4/1/1 2/1/1 3/1/1
f 9/4/1 6/4/1 5/4/1
f 10/4/1 6/4/1 9/4/1
f 11/4/1 8/4/1 7/4/1
f 12/4/1 8/4/1 11/4/1
f 17/4/1 14/4/1 13/4/1
f 18/4/1 14/4/1 17/4/1
f 19/4/1 16/4/1 15/4/1
f 20/4/1 16/4/1 19/4/1
f 23/2/1 22/2/1 21/2/1
f 24/2/1 22/2/1 23/2/1
f 27/5/1 26/5/1 25/5/1
f 28/5/1 26/5/1 27/5/1
f 29/5/1 27/5/1 25/5/1
f 32/5/1 26/5/1 28/5/1
f 33/5/1 30/5/1 29/5/1
f 34/5/1 32/5/1 31/5/1
f 35/5/1 33/5/1 29/5/1
f 35/5/1 34/5/1 33/5/1
f 35/5/1 29/5/1 25/5/1
f 36/5/1 34/5/1 35/5/1
f 37/5/1 32/5/1 34/5/1
f 37/5/1 34/5/1 36/5/1
f 38/5/1 26/5/1 32/5/1
f 38/5/1 32/5/1 37/5/1
f 39/5/1 37/5/1 36/5/1
f 40/5/1 37/5/1 39/5/1
f 41/5/1 35/5/1 25/5/1
f 42/5/1 35/5/1 41/5/1
f 43/5/1 39/5/1 36/5/1
f 44/5/1 39/5/1 43/5/1
f 45/5/1 39/5/1 44/5/1
f 46/5/1 37/5/1 40/5/1
f 47/5/1 37/5/1 46/5/1
f 48/5/1 37/5/1 47/5/1
f 49/5/1 26/5/1 38/5/1
f 50/5/1 26/5/1 49/5/1
f 51/5/1 45/5/1 44/5/1
f 51/5/1 47/5/1 46/5/1
f 51/5/1 46/5/1 45/5/1
f 52/5/1 47/5/1 51/5/1
f 53/4/2 54/4/2 57/4/2
f 57/4/2 54/4/2 58/4/2
f 55/4/2 56/4/2 59/4/2
f 59/4/2 56/4/2 60/4/2
f 61/3/2 62/3/2 63/3/2
f 63/3/2 62/3/2 64/3/2
f 65/4/2 66/4/2 69/4/2
f 69/4/2 66/4/2 70/4/2
f 67/4/2 68/4/2 71/4/2
f 71/4/2 68/4/2 72/4/2
f 73/5/2 74/5/2 75/5/2
f 75/5/2 74/5/2 76/5/2
f 76/5/2 74/5/2 77/5/2
f 77/5/2 74/5/2 78/5/2
f 76/5/2 77/5/2 79/5/2
f 79/5/2 77/5/2 80/5/2
f 73/5/2 75/5/2 81/5/2
f 81/5/2 75/5/2 82/5/2
f 76/5/2 79/5/2 83/5/2
f 83/5/2 79/5/2 84/5/2
f 84/5/2 79/5/2 85/5/2
f 80/5/2 77/5/2 86/5/2
f 86/5/2 77/5/2 87/5/2
f 87/5/2 77/5/2 88/5/2
f 78/5/2 74/5/2 89/5/2
f 89/5/2 74/5/2 90/5/2
f 84/5/2 85/5/2 91/5/2
f 86/5/2 87/5/2 91/5/2
f 85/5/2 86/5/2 91/5/2
f 91/5/2 87/5/2 92/5/2
f 95/5/3 94/5/3 93/5/3
f 96/5/3 94/5/3 95/5/3
f 100/1/3 98/1/3 97/1/3
f 101/4/3 100/4/3 99/4/3
f 102/1/3 98/1/3 100/1/3
f 102/4/3 100/4/3 101/4/3
f 103/1/3 98/1/3 102/1/3
f 104/1/3 98/1/3 103/1/3
f 105/3/3 104/3/3 103/3/3
f 106/3/3 104/3/3 105/3/3
f 107/3/3 104/3/3 106/3/3
f 109/4/3 106/4/3 105/4/3
f 110/4/3 109/4/3 108/4/3
f 111/4/3 106/4/3 109/4/3
f 111/4/3 109/4/3 110/4/3
f 112/4/3 106/4/3 111/4/3
f 113/4/3 106/4/3 112/4/3
f 116/2/3 115/2/3 114/2/3
f 117/2/3 115/2/3 116/2/3
f 120/5/3 119/5/3 118/5/3
f 121/5/3 119/5/3 120/5/3
f 124/5/3 123/5/3 122/5/3
f 125/5/3 123/5/3 124/5/3
f 128/5/3 127/5/3 126/5/3
f 129/5/3 127/5/3 128/5/3
f 132/4/3 131/4/3 130/4/3
f 133/4/3 131/4/3 132/4/3
f 136/4/3 135/4/3 134/4/3
f 137/4/3 135/4/3 136/4/3
f 140/5/3 139/5/3 138/5/3
f 141/5/3 139/5/3 140/5/3
f 142/5/4 143/5/4 144/5/4
f 144/5/4 143/5/4 145/5/4
f 146/4/4 147/4/4 148/4/4
f 148/4/4 147/4/4 149/4/4
f 150/4/4 151/4/4 152/4/4
f 152/4/4 151/4/4 153/4/4
f 154/5/4 155/5/4 156/5/4
f 156/5/4 155/5/4 157/5/4
f 158/5/4 159/5/4 160/5/4
f 160/5/4 159/5/4 161/5/4
f 162/2/4 163/2/4 164/2/4
f 164/2/4 163/2/4 165/2/4
f 166/5/4 167/5/4 168/5/4
f 168/5/4 167/5/4 169/5/4
f 170/1/4 171/1/4 173/1/4
f 172/4/4 173/4/4 174/4/4
f 173/1/4 171/1/4 175/1/4
f 174/4/4 173/4/4 175/4/4
f 175/1/4 171/1/4 176/1/4
f 176/1/4 171/1/4 177/1/4
f 176/3/4 177/3/4 178/3/4
f 178/3/4 177/3/4 179/3/4
f 179/3/4 177/3/4 180/3/4
f 178/4/4 179/4/4 182/4/4
f 181/4/4 182/4/4 183/4/4
f 182/4/4 179/4/4 184/4/4
f 183/4/4 182/4/4 184/4/4
f 184/4/4 179/4/4 185/4/4
f 185/4/4 179/4/4 186/4/4
f 187/5/4 188/5/4 189/5/4
f 189/5/4 188/5/4 190/5/4
f 197/4/5 194/4/5 193/4/5
f 198/4/5 194/4/5 197/4/5
f 199/4/5 196/4/5 195/4/5
f 200/4/5 196/4/5 199/4/5
f 205/4/5 202/4/5 201/4/5
f 206/4/5 202/4/5 205/4/5
f 207/4/5 204/4/5 203/4/5
f 208/4/5 204/4/5 207/4/5
f 209/5/5 192/5/5 191/5/5
f 210/5/5 192/5/5 209/5/5
f 219/1/5 212/1/5 211/1/5
f 220/1/5 214/1/5 213/1/5
f 221/3/5 215/3/5 214/3/5
f 221/1/5 214/1/5 220/1/5
f 222/4/5 216/4/5 215/4/5
f 222/3/5 215/3/5 221/3/5
f 223/4/5 216/4/5 222/4/5
f 224/4/5 218/4/5 217/4/5
f 225/4/5 223/4/5 222/4/5
f 225/4/5 224/4/5 223/4/5
f 225/1/5 219/1/5 211/1/5
f 225/4/5 220/4/5 219/4/5
f 225/4/5 222/4/5 221/4/5
f 225/4/5 221/4/5 220/4/5
f 226/4/5 224/4/5 225/4/5
f 227/4/5 224/4/5 226/4/5
f 228/4/5 224/4/5 227/4/5
f 229/4/5 224/4/5 228/4/5
f 230/4/5 218/4/5 224/4/5
f 230/4/5 224/4/5 229/4/5
f 231/1/5 225/1/5 211/1/5
f 232/1/5 225/1/5 231/1/5
f 233/1/5 227/1/5 226/1/5
f 234/3/5 228/3/5 227/3/5
f 234/1/5 227/1/5 233/1/5
f 235/4/5 229/4/5 228/4/5
f 235/3/5 228/3/5 234/3/5
f 236/4/5 229/4/5 235/4/5
f 237/4/5 218/4/5 230/4/5
f 238/4/5 218/4/5 237/4/5
f 241/5/5 240/5/5 239/5/5
f 242/5/5 240/5/5 241/5/5
f 243/4/6 244/4/6 245/4/6
f 245/4/6 244/4/6 246/4/6
f 243/4/6 245/4/6 247/4/6
f 243/4/6 247/4/6 249/4/6
f 247/4/6 248/4/6 249/4/6
f 249/4/6 248/4/6 250/4/6
f 254/2/6 255/2/6 256/2/6
f 256/2/6 255/2/6 257/2/6
f 251/1/6 252/1/6 258/1/6
f 252/3/6 253/3/6 259/3/6
f 258/1/6 252/1/6 259/1/6
f 259/3/6 253/3/6 260/3/6
f 261/5/6 262/5/6 263/5/6
f 263/5/6 262/5/6 264/5/6
f 265/5/6 266/5/6 267/5/6
f 267/5/6 266/5/6 268/5/6
f 269/5/6 270/5/6 271/5/6
f 271/5/6 270/5/6 272/5/6
f 273/5/6 274/5/6 275/5/6
f 275/5/6 274/5/6 276/5/6
f 277/5/6 278/5/6 279/5/6
f 279/5/6 278/5/6 280/5/6
f 281/5/6 282/5/6 283/5/6
f 283/5/6 282/5/6 284/5/6
f 285/5/6 286/5/6 287/5/6
f 287/5/6 286/5/6 288/5/6
f 289/5/6 290/5/6 291/5/6
f 291/5/6 290/5/6 292/5/6
